<?xml version="1.0" standalone="no"?>
<!DOCTYPE svg PUBLIC "-//W3C//DTD SVG 20010904//EN"
 "http://www.w3.org/TR/2001/REC-SVG-20010904/DTD/svg10.dtd">
<svg version="1.0" xmlns="http://www.w3.org/2000/svg"
 width="656.000000pt" height="656.000000pt" viewBox="0 0 656.000000 656.000000"
 preserveAspectRatio="xMidYMid meet">
<metadata>
Created by potrace 1.14, written by Peter Selinger 2001-2017
</metadata>
<g transform="translate(0.000000,656.000000) scale(0.100000,-0.100000)"
fill="#000000" stroke="none">
<path d="M3151 6294 c-176 -47 -312 -192 -350 -372 -25 -119 -4 -237 64 -354
25 -43 45 -84 45 -92 0 -10 -16 -19 -42 -26 -271 -67 -555 -216 -755 -395
-228 -204 -385 -422 -484 -670 -31 -78 -46 -105 -59 -105 -10 0 -54 15 -97 34
-145 62 -389 141 -621 202 -113 29 -138 33 -149 22 -10 -10 -15 -68 -20 -216
-4 -135 -10 -202 -17 -202 -6 0 -62 25 -125 55 -62 30 -119 55 -127 55 -7 0
-16 -10 -18 -22 -4 -18 -36 -577 -36 -625 0 -19 -38 -16 -98 7 -70 27 -100 26
-111 -2 -5 -13 -14 -144 -21 -293 -6 -148 -17 -396 -25 -550 -8 -154 -17 -354
-20 -445 -7 -198 -19 -441 -45 -890 -36 -622 -35 -606 -13 -618 13 -7 343 -12
979 -15 1060 -5 981 0 1269 -73 226 -58 408 -136 684 -293 69 -39 166 -92 217
-117 87 -44 94 -46 133 -36 23 5 72 28 109 50 211 124 475 259 597 306 39 15
86 33 105 41 93 36 278 79 455 106 56 9 357 13 1018 16 l938 4 11 23 c7 17 6
107 -6 317 -9 162 -20 389 -26 504 -5 116 -15 293 -20 395 -6 102 -17 334 -25
515 -8 182 -20 411 -25 510 -6 99 -15 263 -19 363 -6 112 -13 188 -20 195 -9
9 -33 4 -94 -16 -45 -15 -87 -27 -93 -27 -7 0 -15 109 -23 323 -9 228 -17 326
-26 335 -13 14 -74 -7 -199 -70 -32 -16 -64 -27 -72 -24 -11 4 -14 43 -14 199
0 239 2 234 -95 209 -38 -10 -95 -24 -125 -31 -145 -34 -556 -168 -632 -207
-35 -18 -58 -18 -58 1 0 23 -84 209 -131 289 -171 291 -433 548 -714 701 -105
58 -288 131 -392 157 -46 11 -83 25 -83 30 0 5 18 39 40 75 68 113 83 164 83
278 0 119 -20 184 -84 276 -69 97 -179 173 -290 198 -62 15 -185 12 -248 -5z
m300 -117 c80 -39 140 -95 180 -169 33 -61 34 -66 34 -178 0 -104 -3 -121 -27
-172 -28 -60 -102 -148 -124 -148 -11 0 -14 22 -14 103 0 175 -33 207 -213
207 -187 0 -217 -28 -217 -202 0 -100 -1 -108 -19 -108 -27 0 -106 102 -131
168 -28 73 -28 207 0 287 36 104 121 191 224 227 39 14 75 18 151 16 86 -3
108 -7 156 -31z m-87 -483 c23 -9 24 -174 1 -174 -10 0 -15 16 -17 63 -3 54
-5 62 -23 62 -18 0 -20 -8 -23 -62 l-3 -63 -64 0 -65 0 0 78 c0 47 5 83 12 90
13 13 153 17 182 6z m131 -319 c364 -55 688 -218 951 -480 147 -147 251 -288
330 -450 149 -306 199 -636 148 -982 -6 -44 -27 -50 -37 -12 -4 16 -3 18 8 9
9 -8 14 -7 18 4 3 8 1 17 -6 20 -9 4 -9 7 -1 11 8 4 9 18 4 41 -6 26 -5 34 3
31 7 -3 13 6 14 21 1 16 -2 21 -7 12 -6 -10 -9 -8 -12 6 -2 10 -11 -17 -20
-61 -9 -44 -24 -105 -32 -135 -8 -30 -22 -82 -30 -115 -41 -165 -140 -372
-243 -510 -245 -326 -565 -542 -933 -629 -263 -63 -479 -62 -745 4 -242 60
-409 142 -624 307 -80 62 -185 138 -232 170 -79 53 -92 67 -155 163 -130 199
-213 399 -251 604 -25 134 -25 498 0 621 53 258 171 517 326 715 129 163 213
240 401 365 219 146 482 245 735 278 77 10 300 5 390 -8z m-2488 -1011 c84
-24 214 -67 290 -95 76 -28 164 -60 196 -72 45 -16 57 -24 52 -36 -59 -147
-75 -587 -31 -811 89 -445 386 -902 746 -1146 250 -170 565 -285 854 -314 55
-5 101 -12 103 -14 3 -2 6 -235 9 -518 4 -492 4 -512 -13 -488 -43 59 -143
180 -203 243 -304 324 -878 579 -1640 731 -130 26 -487 76 -543 76 -18 0 -42
3 -54 6 -23 6 -23 7 -23 223 0 253 28 1871 36 2109 l6 163 32 -7 c17 -3 99
-26 183 -50z m4767 -41 c3 -54 8 -253 11 -443 5 -337 18 -1041 31 -1647 3
-167 4 -303 2 -303 -1 -1 -59 -7 -128 -15 -318 -37 -481 -64 -738 -125 -624
-149 -1118 -389 -1393 -677 -71 -75 -172 -196 -211 -253 l-16 -25 4 40 c2 22
5 255 8 519 3 263 7 480 9 483 3 2 48 8 100 13 305 29 692 178 907 349 292
232 502 514 605 810 82 240 115 426 115 658 0 122 -26 342 -50 423 -5 19 -10
38 -10 41 0 26 627 237 736 248 8 1 14 -32 18 -96z m-5141 -293 c22 -11 27
-20 27 -47 0 -19 -7 -415 -15 -881 -15 -901 -22 -1186 -31 -1232 -9 -43 22
-57 151 -64 227 -14 605 -79 875 -150 74 -20 146 -38 160 -42 71 -18 280 -88
386 -129 211 -83 519 -255 629 -350 25 -22 21 -21 -18 5 -64 42 -226 118 -352
165 -191 71 -475 131 -750 157 -246 24 -1004 13 -1284 -17 l-43 -5 6 158 c7
161 19 395 36 677 5 88 14 266 20 395 6 129 17 386 25 570 8 184 17 441 21
570 3 129 7 245 10 257 l4 22 58 -23 c31 -13 69 -29 85 -36z m5451 -102 c3
-84 11 -274 16 -423 6 -148 17 -398 25 -555 17 -340 20 -390 45 -905 11 -220
22 -443 25 -497 3 -53 2 -98 -2 -100 -8 -5 -233 7 -333 16 -138 13 -676 18
-844 7 -444 -28 -835 -123 -1141 -277 -71 -37 -136 -71 -142 -76 -7 -6 -13 -8
-13 -5 0 8 150 114 225 159 90 54 347 180 455 223 386 152 981 283 1410 311
128 8 142 17 135 83 -12 121 -48 2112 -38 2122 11 11 143 68 159 69 7 0 13
-52 18 -152z m-5760 -461 c16 -11 16 -28 6 -237 -5 -124 -17 -376 -25 -560
-15 -336 -38 -816 -54 -1135 -12 -225 -14 -220 118 -212 508 33 1157 34 1406
3 358 -45 589 -109 850 -236 225 -110 349 -194 503 -342 28 -28 52 -54 52 -57
0 -3 -18 -14 -40 -23 l-40 -17 -73 48 c-155 103 -375 213 -532 268 -105 36
-324 88 -470 112 -255 40 -588 51 -955 31 -316 -17 -491 -25 -772 -36 -143 -5
-168 -4 -168 8 0 27 39 762 45 843 3 44 12 233 20 420 28 640 44 990 51 1063
6 70 6 72 33 72 15 0 35 -6 45 -13z m5990 -34 c6 -49 12 -159 21 -388 3 -71 7
-159 10 -195 2 -36 7 -117 10 -180 3 -63 9 -203 15 -310 5 -107 17 -337 25
-510 8 -173 19 -409 25 -524 5 -115 10 -220 10 -233 l0 -25 -117 6 c-65 3
-172 8 -238 11 -66 3 -241 11 -390 17 -355 17 -798 16 -945 -1 -132 -15 -411
-65 -485 -87 -315 -93 -569 -208 -739 -333 l-51 -38 -42 21 c-23 12 -42 24
-43 28 0 12 173 169 232 209 393 268 807 401 1373 440 193 13 754 7 1092 -12
177 -10 216 -9 229 2 14 12 15 36 10 214 -4 110 -9 234 -11 275 -5 75 -20 382
-30 620 -3 69 -8 150 -10 180 -3 30 -7 118 -10 195 -3 77 -8 169 -10 205 -3
36 -7 137 -10 225 -4 88 -8 172 -11 188 -5 22 -1 29 18 36 52 21 66 15 72 -36z
m-1413 -70 c-12 -20 -14 -14 -5 12 4 9 9 14 11 11 3 -2 0 -13 -6 -23z m-751
-1077 c0 -2 -16 -13 -35 -25 -19 -11 -35 -17 -35 -12 0 4 15 15 33 24 37 18
37 18 37 13z m-81 -50 c-2 -2 -15 -9 -29 -15 -24 -11 -24 -11 -6 3 16 13 49
24 35 12z m-89 -46 c-8 -5 -19 -10 -25 -10 -5 0 -3 5 5 10 8 5 20 10 25 10 6
0 3 -5 -5 -10z m-2270 -1200 c439 -30 698 -96 1042 -266 70 -34 155 -79 188
-99 52 -31 59 -39 50 -55 -6 -10 -15 -22 -20 -25 -6 -3 -70 25 -143 63 -294
155 -565 231 -949 268 -148 14 -286 16 -966 12 -539 -2 -792 0 -792 7 0 5 3
20 6 32 8 29 26 31 354 38 146 3 297 8 335 11 257 21 696 27 895 14z m3246 -9
c-3 -4 4 -8 15 -8 13 -1 17 2 12 10 -4 7 1 6 11 -2 15 -12 17 -12 14 0 -3 15
55 21 83 7 9 -4 19 -5 22 -1 7 6 455 5 466 -1 3 -2 121 -7 261 -11 140 -4 273
-8 295 -10 22 -2 97 -4 167 -6 119 -2 127 -3 132 -23 15 -55 78 -51 -851 -51
-880 0 -896 -1 -1143 -41 -263 -43 -538 -141 -783 -278 -37 -21 -70 -37 -72
-35 -2 2 -6 15 -10 29 -5 22 1 29 47 60 214 140 597 279 922 335 114 19 321
38 352 32 14 -2 27 -1 30 4 2 4 11 6 19 3 8 -4 13 -9 11 -13z m-1581 -435 c28
-13 64 -35 82 -48 l32 -24 -67 -40 c-75 -44 -118 -64 -138 -64 -13 0 -100 39
-139 62 -11 7 -31 19 -45 27 l-24 14 39 34 c73 63 177 79 260 39z"/>
<path d="M3243 5600 c0 -25 2 -35 4 -22 2 12 2 32 0 45 -2 12 -4 2 -4 -23z"/>
<path d="M3088 5240 c-153 -18 -311 -70 -488 -161 -375 -192 -648 -508 -779
-904 -59 -179 -75 -287 -75 -500 0 -201 11 -273 71 -460 96 -302 343 -622 620
-802 157 -102 353 -182 553 -224 152 -32 441 -33 584 -1 220 49 378 113 536
216 316 208 536 485 638 807 117 366 107 707 -32 1057 -65 166 -161 316 -313
488 -141 161 -414 340 -628 412 -214 72 -460 98 -687 72z m197 -255 l30 0 3
69 3 69 92 -6 c271 -18 592 -164 811 -368 l77 -72 -67 -68 c-58 -58 -66 -70
-54 -83 21 -26 39 -19 105 45 l63 60 74 -98 c40 -54 90 -129 109 -168 84 -161
152 -377 164 -520 4 -38 8 -80 11 -92 4 -19 -1 -22 -37 -25 -81 -6 -73 -68 8
-68 29 0 33 -3 29 -22 -3 -13 -7 -60 -11 -106 -16 -232 -149 -547 -305 -725
l-40 -46 -63 65 c-63 64 -92 78 -104 48 -4 -11 16 -38 63 -85 l69 -70 -54 -47
c-157 -138 -349 -254 -513 -311 -93 -32 -261 -66 -365 -74 l-63 -5 0 73 c0 80
-16 109 -48 88 -13 -8 -18 -28 -20 -88 l-3 -77 -77 7 c-310 28 -632 168 -852
372 l-69 64 64 61 c45 41 65 68 65 84 0 40 -32 29 -105 -38 l-67 -62 -19 25
c-198 254 -286 481 -323 827 l-4 42 39 0 c26 0 41 5 48 18 16 29 -5 52 -48 52
l-37 0 8 76 c19 173 76 382 138 505 43 83 129 214 174 264 l44 50 60 -58 c39
-39 66 -58 78 -55 34 6 25 32 -36 100 l-60 66 78 72 c219 205 527 344 814 368
l83 7 5 -70 5 -70 30 0z"/>
<path d="M3802 4889 c-23 -38 -42 -77 -42 -85 0 -15 39 -35 52 -27 13 7 78
129 78 146 0 13 -27 37 -42 37 -2 0 -22 -32 -46 -71z"/>
<path d="M2676 4942 c-3 -5 8 -36 25 -68 45 -88 54 -97 83 -90 35 9 32 29 -13
101 -28 45 -44 61 -63 63 -14 2 -29 -1 -32 -6z"/>
<path d="M3261 4873 c-14 -28 -116 -401 -151 -558 -18 -77 -36 -144 -40 -149
-9 -9 -63 18 -190 96 -151 92 -305 178 -317 178 -24 0 -13 -21 61 -123 85
-118 266 -387 266 -396 0 -7 -130 -40 -505 -126 -132 -31 -252 -61 -267 -67
-51 -20 -32 -35 70 -58 265 -57 681 -156 687 -162 4 -4 -146 -241 -251 -399
-46 -69 -84 -129 -84 -132 0 -17 30 -3 124 57 231 147 402 243 413 232 7 -6
55 -197 103 -406 71 -312 91 -364 124 -330 8 8 42 137 76 285 33 149 71 312
83 363 l23 92 226 -129 c125 -71 244 -141 265 -155 78 -53 72 -23 -21 101
-109 145 -298 427 -289 430 4 1 64 14 133 28 69 15 141 31 160 35 19 5 141 31
270 57 233 48 260 56 260 73 0 10 -74 35 -155 51 -118 23 -647 147 -653 153
-3 4 13 32 35 64 154 213 313 456 306 463 -6 6 -70 -30 -159 -87 -82 -54 -194
-126 -249 -161 l-100 -64 -12 43 c-138 509 -185 677 -193 696 -11 26 -36 29
-49 5z m33 -400 c3 -126 9 -298 12 -383 l6 -155 -37 -3 c-45 -3 -104 -32 -143
-71 -35 -35 -72 -107 -72 -139 0 -13 -7 -25 -16 -29 -27 -10 -642 23 -631 34
7 6 545 104 648 118 l46 6 22 77 c23 84 98 466 128 655 10 64 21 117 24 117 4
0 10 -102 13 -227z m-325 -347 c45 -27 81 -54 81 -60 0 -6 -6 -31 -13 -57
l-12 -45 -119 126 c-66 70 -122 132 -124 138 -4 12 34 -9 187 -102z m800 57
c-70 -96 -291 -367 -293 -360 -1 1 -21 23 -45 49 l-43 46 63 50 c94 74 353
272 357 272 1 0 -16 -26 -39 -57z m13 -384 c78 -16 170 -34 203 -39 33 -6 94
-16 135 -24 l75 -13 -115 -7 c-203 -11 -507 -26 -540 -26 -39 0 -38 3 25 90
35 47 53 65 62 58 6 -5 76 -22 155 -39z m-428 -21 c23 -25 27 -37 22 -66 -8
-51 -41 -82 -87 -82 -78 0 -124 85 -79 143 44 55 96 57 144 5z m-245 -208 c-2
-6 -203 -189 -263 -240 l-41 -35 27 36 c14 19 39 55 55 80 16 24 63 95 103
157 l74 113 24 -53 c13 -29 22 -55 21 -58z m169 -64 l32 1 -5 -221 c-5 -206
-20 -475 -28 -483 -2 -2 -9 36 -16 84 -17 121 -58 349 -81 460 -24 113 -25
131 -4 155 12 13 24 16 43 10 14 -4 41 -7 59 -6z m398 -192 c63 -72 114 -134
114 -137 0 -4 -51 27 -112 67 -62 40 -127 80 -144 89 -33 17 -33 19 -18 115 5
34 6 34 26 15 11 -10 72 -77 134 -149z m-691 31 c-16 -14 -30 -30 -30 -37 0
-7 -8 -12 -18 -12 -9 1 -14 -2 -11 -7 3 -5 1 -9 -4 -9 -5 0 -41 -21 -78 -46
l-69 -45 50 46 c46 42 173 134 185 134 3 0 -8 -11 -25 -24z m25 -10 c0 -2 -10
-9 -22 -15 -22 -11 -22 -10 -4 4 21 17 26 19 26 11z"/>
<path d="M2020 4241 c-16 -32 -3 -46 75 -78 78 -32 95 -30 95 12 0 17 -15 28
-72 53 -86 38 -84 37 -98 13z"/>
<path d="M4445 4227 c-42 -23 -61 -39 -63 -55 -5 -35 23 -37 91 -8 88 37 91
40 83 70 -9 35 -36 33 -111 -7z"/>
<path d="M2115 3233 c-72 -30 -85 -40 -85 -63 0 -35 25 -35 110 3 60 26 70 40
48 70 -12 14 -18 14 -73 -10z"/>
<path d="M4387 3243 c-21 -20 -3 -45 53 -73 68 -34 95 -37 109 -12 14 27 2 39
-67 67 -64 26 -84 30 -95 18z"/>
<path d="M3777 2623 c-14 -13 -6 -44 25 -108 33 -66 53 -80 78 -50 15 18 4 49
-41 120 -27 42 -46 54 -62 38z"/>
<path d="M2720 2558 c-46 -74 -49 -91 -15 -106 24 -11 26 -9 64 67 29 58 36
82 28 90 -21 21 -38 10 -77 -51z"/>
<path d="M4910 3650 c0 -11 4 -20 9 -20 5 0 7 9 4 20 -3 11 -7 20 -9 20 -2 0
-4 -9 -4 -20z"/>
<path d="M1205 1280 c-107 -5 -113 -7 -106 -37 0 -5 121 -8 269 -9 430 -1 777
-47 1081 -143 52 -16 98 -28 103 -25 34 21 -31 53 -207 103 -198 56 -488 97
-755 106 -85 3 -182 7 -215 8 -33 1 -109 0 -170 -3z"/>
<path d="M4845 1269 c-345 -33 -855 -149 -855 -195 0 -25 21 -25 98 0 305 101
684 156 1112 162 257 3 265 4 268 24 3 20 -1 20 -265 19 -147 -1 -308 -6 -358
-10z"/>
</g>
</svg>
